<?xml version="1.0" encoding="UTF-8"?> <svg xmlns="http://www.w3.org/2000/svg" width="42" height="42" viewBox="0 0 42 42" fill="none"><path d="M3 23.8H16C17.215 23.8 18.2 24.785 18.2 26V39C18.2 40.215 17.215 41.2 16 41.2H3C1.78497 41.2 0.8 40.215 0.8 39V26C0.8 24.785 1.78497 23.8 3 23.8Z" stroke="white" stroke-width="1.6"></path><path d="M26 23.8H39C40.215 23.8 41.2 24.785 41.2 26V39C41.2 40.215 40.215 41.2 39 41.2H26C24.785 41.2 23.8 40.215 23.8 39V26C23.8 24.785 24.785 23.8 26 23.8Z" stroke="white" stroke-width="1.6"></path><path d="M3 0.8H16C17.215 0.8 18.2 1.78497 18.2 3V16C18.2 17.215 17.215 18.2 16 18.2H3C1.78497 18.2 0.8 17.215 0.8 16V3C0.8 1.78497 1.78497 0.8 3 0.8Z" stroke="white" stroke-width="1.6"></path><path d="M26 0.8H39C40.215 0.8 41.2 1.78497 41.2 3V16C41.2 17.215 40.215 18.2 39 18.2H26C24.785 18.2 23.8 17.215 23.8 16V3C23.8 1.78497 24.785 0.8 26 0.8Z" stroke="white" stroke-width="1.6"></path></svg> 